<svg width="1300" height="270" viewBox="0 0 1300 270" fill="none" xmlns="http://www.w3.org/2000/svg">
<rect width="1300" height="270" fill="white"/>
<rect x="42" y="43" width="456" height="132" stroke="#6093F7" stroke-width="8"/>
<path d="M96.0645 124.127V54.4688H113.154V124.127C113.154 130.735 111.742 136.363 108.916 141.012C106.09 145.66 102.24 149.215 97.3633 151.676C92.487 154.137 86.9499 155.367 80.752 155.367C74.4173 155.367 68.7891 154.296 63.8672 152.154C58.9909 150.012 55.1628 146.731 52.3828 142.311C49.6029 137.89 48.2129 132.285 48.2129 125.494H65.4395C65.4395 129.413 66.0547 132.581 67.2852 134.996C68.5612 137.366 70.3385 139.098 72.6172 140.191C74.9414 141.24 77.653 141.764 80.752 141.764C83.7142 141.764 86.3346 141.103 88.6133 139.781C90.9375 138.414 92.7604 136.432 94.082 133.834C95.4036 131.191 96.0645 127.955 96.0645 124.127Z" fill="black"/>
<path d="M170.166 67.7305L140.43 154H122.451L159.912 54.4688H171.396L170.166 67.7305ZM195.049 154L165.244 67.7305L163.945 54.4688H175.498L213.096 154H195.049ZM193.613 117.086V130.689H139.473V117.086H193.613Z" fill="black"/>
<path d="M276.602 128.365C276.602 126.314 276.283 124.492 275.645 122.896C275.052 121.301 273.981 119.843 272.432 118.521C270.882 117.2 268.695 115.924 265.869 114.693C263.089 113.417 259.535 112.118 255.205 110.797C250.465 109.339 246.09 107.721 242.08 105.943C238.115 104.12 234.652 102.024 231.689 99.6543C228.727 97.2389 226.426 94.4818 224.785 91.3828C223.145 88.2383 222.324 84.6152 222.324 80.5137C222.324 76.4577 223.167 72.7663 224.854 69.4395C226.585 66.1126 229.023 63.2415 232.168 60.8262C235.358 58.3652 239.118 56.474 243.447 55.1523C247.777 53.7852 252.562 53.1016 257.803 53.1016C265.186 53.1016 271.543 54.4688 276.875 57.2031C282.253 59.9375 286.377 63.6061 289.248 68.209C292.165 72.8118 293.623 77.8932 293.623 83.4531H276.602C276.602 80.1719 275.895 77.278 274.482 74.7715C273.115 72.2194 271.019 70.2142 268.193 68.7559C265.413 67.2975 261.882 66.5684 257.598 66.5684C253.542 66.5684 250.169 67.1836 247.48 68.4141C244.792 69.6445 242.786 71.3079 241.465 73.4043C240.143 75.5007 239.482 77.8704 239.482 80.5137C239.482 82.3822 239.915 84.0911 240.781 85.6406C241.647 87.1445 242.969 88.5573 244.746 89.8789C246.523 91.1549 248.757 92.3626 251.445 93.502C254.134 94.6413 257.301 95.735 260.947 96.7832C266.462 98.4238 271.27 100.247 275.371 102.252C279.473 104.212 282.891 106.445 285.625 108.951C288.359 111.458 290.41 114.306 291.777 117.496C293.145 120.641 293.828 124.218 293.828 128.229C293.828 132.421 292.985 136.204 291.299 139.576C289.613 142.903 287.197 145.751 284.053 148.121C280.954 150.445 277.217 152.245 272.842 153.521C268.512 154.752 263.682 155.367 258.35 155.367C253.564 155.367 248.848 154.729 244.199 153.453C239.596 152.177 235.404 150.24 231.621 147.643C227.839 144.999 224.831 141.718 222.598 137.799C220.365 133.834 219.248 129.208 219.248 123.922H236.406C236.406 127.158 236.953 129.915 238.047 132.193C239.186 134.472 240.758 136.34 242.764 137.799C244.769 139.212 247.093 140.26 249.736 140.943C252.425 141.627 255.296 141.969 258.35 141.969C262.36 141.969 265.71 141.399 268.398 140.26C271.133 139.12 273.184 137.525 274.551 135.475C275.918 133.424 276.602 131.054 276.602 128.365Z" fill="black"/>
<path d="M388.369 101.5V106.969C388.369 114.488 387.389 121.233 385.43 127.203C383.47 133.173 380.667 138.255 377.021 142.447C373.421 146.64 369.092 149.853 364.033 152.086C358.975 154.273 353.369 155.367 347.217 155.367C341.11 155.367 335.527 154.273 330.469 152.086C325.456 149.853 321.104 146.64 317.412 142.447C313.721 138.255 310.85 133.173 308.799 127.203C306.794 121.233 305.791 114.488 305.791 106.969V101.5C305.791 93.9805 306.794 87.2585 308.799 81.334C310.804 75.3639 313.63 70.2826 317.275 66.0898C320.967 61.8516 325.319 58.6387 330.332 56.4512C335.391 54.2181 340.973 53.1016 347.08 53.1016C353.232 53.1016 358.838 54.2181 363.896 56.4512C368.955 58.6387 373.307 61.8516 376.953 66.0898C380.599 70.2826 383.402 75.3639 385.361 81.334C387.367 87.2585 388.369 93.9805 388.369 101.5ZM371.211 106.969V101.363C371.211 95.8034 370.664 90.9043 369.57 86.666C368.522 82.3822 366.95 78.8047 364.854 75.9336C362.803 73.0169 360.273 70.8294 357.266 69.3711C354.258 67.8672 350.863 67.1152 347.08 67.1152C343.298 67.1152 339.925 67.8672 336.963 69.3711C334.001 70.8294 331.471 73.0169 329.375 75.9336C327.324 78.8047 325.752 82.3822 324.658 86.666C323.564 90.9043 323.018 95.8034 323.018 101.363V106.969C323.018 112.529 323.564 117.451 324.658 121.734C325.752 126.018 327.347 129.641 329.443 132.604C331.585 135.52 334.137 137.73 337.1 139.234C340.062 140.693 343.434 141.422 347.217 141.422C351.045 141.422 354.44 140.693 357.402 139.234C360.365 137.73 362.871 135.52 364.922 132.604C366.973 129.641 368.522 126.018 369.57 121.734C370.664 117.451 371.211 112.529 371.211 106.969Z" fill="black"/>
<path d="M484.482 54.4688V154H467.324L422.686 82.7012V154H405.527V54.4688H422.686L467.461 125.904V54.4688H484.482Z" fill="black"/>
<path d="M577.457 68.916L542.652 175H514.615L562.164 47.0312H580.006L577.457 68.916ZM606.373 175L571.48 68.916L568.668 47.0312H586.686L634.498 175H606.373ZM604.791 127.363V148.018H537.203V127.363H604.791Z" fill="#6093F7"/>
<path d="M750.514 47.0312V175H724.146L672.73 89.2188V175H646.363V47.0312H672.73L724.234 132.9V47.0312H750.514Z" fill="#6093F7"/>
<path d="M812.74 175H784.879L785.055 154.434H812.74C819.654 154.434 825.484 152.881 830.23 149.775C834.977 146.611 838.551 142.012 840.953 135.977C843.414 129.941 844.645 122.646 844.645 114.092V107.852C844.645 101.289 843.941 95.5176 842.535 90.5371C841.188 85.5566 839.166 81.3672 836.471 77.9688C833.775 74.5703 830.465 72.0215 826.539 70.3223C822.613 68.5645 818.102 67.6855 813.004 67.6855H784.352V47.0312H813.004C821.559 47.0312 829.381 48.4961 836.471 51.4258C843.619 54.2969 849.801 58.4277 855.016 63.8184C860.23 69.209 864.244 75.6543 867.057 83.1543C869.928 90.5957 871.363 98.8867 871.363 108.027V114.092C871.363 123.174 869.928 131.465 867.057 138.965C864.244 146.465 860.23 152.91 855.016 158.301C849.859 163.633 843.678 167.764 836.471 170.693C829.322 173.564 821.412 175 812.74 175ZM799.82 47.0312V175H773.453V47.0312H799.82Z" fill="#6093F7"/>
<path d="M890.523 47.0312H938.248C948.033 47.0312 956.441 48.4961 963.473 51.4258C970.562 54.3555 976.012 58.6914 979.82 64.4336C983.629 70.1758 985.533 77.2363 985.533 85.6152C985.533 92.4707 984.361 98.3594 982.018 103.281C979.732 108.145 976.48 112.217 972.262 115.498C968.102 118.721 963.209 121.299 957.584 123.232L949.234 127.627H907.75L907.574 107.061H938.424C943.053 107.061 946.891 106.24 949.938 104.6C952.984 102.959 955.27 100.674 956.793 97.7441C958.375 94.8145 959.166 91.416 959.166 87.5488C959.166 83.4473 958.404 79.9023 956.881 76.9141C955.357 73.9258 953.043 71.6406 949.938 70.0586C946.832 68.4766 942.936 67.6855 938.248 67.6855H916.891V175H890.523V47.0312ZM962.066 175L932.887 117.959L960.748 117.783L990.279 173.77V175H962.066Z" fill="#6093F7"/>
<path d="M1091.71 154.434V175H1023.59V154.434H1091.71ZM1032.2 47.0312V175H1005.84V47.0312H1032.2ZM1082.83 99.1504V119.189H1023.59V99.1504H1082.83ZM1091.62 47.0312V67.6855H1023.59V47.0312H1091.62Z" fill="#6093F7"/>
<path d="M1137.94 154.697L1163.42 47.0312H1177.66L1180.91 64.9609L1153.76 175H1138.46L1137.94 154.697ZM1124.84 47.0312L1145.93 154.697L1144.18 175H1127.12L1098.74 47.0312H1124.84ZM1203.33 154.258L1224.16 47.0312H1250.26L1221.96 175H1204.91L1203.33 154.258ZM1185.66 47.0312L1211.32 155.137L1210.62 175H1195.33L1167.99 64.873L1171.51 47.0312H1185.66Z" fill="#6093F7"/>
<path d="M182.59 207.562V236H177.727V207.562H182.59ZM191.516 207.562V211.469H168.879V207.562H191.516Z" fill="#424242"/>
<path d="M195.266 207.562H205.324C207.486 207.562 209.328 207.888 210.852 208.539C212.375 209.19 213.54 210.154 214.348 211.43C215.168 212.693 215.578 214.255 215.578 216.117C215.578 217.536 215.318 218.786 214.797 219.867C214.276 220.948 213.54 221.859 212.59 222.602C211.639 223.331 210.507 223.897 209.191 224.301L207.707 225.023H198.664L198.625 221.137H205.402C206.574 221.137 207.551 220.928 208.332 220.512C209.113 220.095 209.699 219.529 210.09 218.812C210.493 218.083 210.695 217.263 210.695 216.352C210.695 215.362 210.5 214.503 210.109 213.773C209.732 213.031 209.146 212.465 208.352 212.074C207.557 211.671 206.548 211.469 205.324 211.469H200.168V236H195.266V207.562ZM211.496 236L204.816 223.227L209.953 223.207L216.73 235.746V236H211.496Z" fill="#424242"/>
<path d="M231.535 211.352L223.039 236H217.902L228.605 207.562H231.887L231.535 211.352ZM238.645 236L230.129 211.352L229.758 207.562H233.059L243.801 236H238.645ZM238.234 225.453V229.34H222.766V225.453H238.234Z" fill="#424242"/>
<path d="M269.543 207.562V236H264.641L251.887 215.629V236H246.984V207.562H251.887L264.68 227.973V207.562H269.543Z" fill="#424242"/>
<path d="M290.344 228.676C290.344 228.09 290.253 227.569 290.07 227.113C289.901 226.658 289.595 226.241 289.152 225.863C288.71 225.486 288.085 225.121 287.277 224.77C286.483 224.405 285.467 224.034 284.23 223.656C282.876 223.24 281.626 222.777 280.48 222.27C279.348 221.749 278.358 221.15 277.512 220.473C276.665 219.783 276.008 218.995 275.539 218.109C275.07 217.211 274.836 216.176 274.836 215.004C274.836 213.845 275.077 212.79 275.559 211.84C276.053 210.889 276.75 210.069 277.648 209.379C278.56 208.676 279.634 208.135 280.871 207.758C282.108 207.367 283.475 207.172 284.973 207.172C287.082 207.172 288.898 207.562 290.422 208.344C291.958 209.125 293.137 210.173 293.957 211.488C294.79 212.803 295.207 214.255 295.207 215.844H290.344C290.344 214.906 290.142 214.079 289.738 213.363C289.348 212.634 288.749 212.061 287.941 211.645C287.147 211.228 286.138 211.02 284.914 211.02C283.755 211.02 282.792 211.195 282.023 211.547C281.255 211.898 280.682 212.374 280.305 212.973C279.927 213.572 279.738 214.249 279.738 215.004C279.738 215.538 279.862 216.026 280.109 216.469C280.357 216.898 280.734 217.302 281.242 217.68C281.75 218.044 282.388 218.389 283.156 218.715C283.924 219.04 284.829 219.353 285.871 219.652C287.447 220.121 288.82 220.642 289.992 221.215C291.164 221.775 292.141 222.413 292.922 223.129C293.703 223.845 294.289 224.659 294.68 225.57C295.07 226.469 295.266 227.491 295.266 228.637C295.266 229.835 295.025 230.915 294.543 231.879C294.061 232.829 293.371 233.643 292.473 234.32C291.587 234.984 290.52 235.499 289.27 235.863C288.033 236.215 286.652 236.391 285.129 236.391C283.762 236.391 282.414 236.208 281.086 235.844C279.771 235.479 278.573 234.926 277.492 234.184C276.411 233.428 275.552 232.491 274.914 231.371C274.276 230.238 273.957 228.917 273.957 227.406H278.859C278.859 228.331 279.016 229.118 279.328 229.77C279.654 230.421 280.103 230.954 280.676 231.371C281.249 231.775 281.913 232.074 282.668 232.27C283.436 232.465 284.257 232.562 285.129 232.562C286.275 232.562 287.232 232.4 288 232.074C288.781 231.749 289.367 231.293 289.758 230.707C290.148 230.121 290.344 229.444 290.344 228.676Z" fill="#424242"/>
<path d="M310.402 225.395H303V221.508H310.402C311.691 221.508 312.733 221.299 313.527 220.883C314.322 220.466 314.901 219.893 315.266 219.164C315.643 218.422 315.832 217.576 315.832 216.625C315.832 215.727 315.643 214.887 315.266 214.105C314.901 213.311 314.322 212.673 313.527 212.191C312.733 211.71 311.691 211.469 310.402 211.469H304.504V236H299.602V207.562H310.402C312.603 207.562 314.471 207.953 316.008 208.734C317.557 209.503 318.736 210.57 319.543 211.938C320.35 213.292 320.754 214.841 320.754 216.586C320.754 218.422 320.35 219.997 319.543 221.312C318.736 222.628 317.557 223.637 316.008 224.34C314.471 225.043 312.603 225.395 310.402 225.395Z" fill="#424242"/>
<path d="M333.254 211.352L324.758 236H319.621L330.324 207.562H333.605L333.254 211.352ZM340.363 236L331.848 211.352L331.477 207.562H334.777L345.52 236H340.363ZM339.953 225.453V229.34H324.484V225.453H339.953Z" fill="#424242"/>
<path d="M348.703 207.562H358.762C360.923 207.562 362.766 207.888 364.289 208.539C365.812 209.19 366.978 210.154 367.785 211.43C368.605 212.693 369.016 214.255 369.016 216.117C369.016 217.536 368.755 218.786 368.234 219.867C367.714 220.948 366.978 221.859 366.027 222.602C365.077 223.331 363.944 223.897 362.629 224.301L361.145 225.023H352.102L352.062 221.137H358.84C360.012 221.137 360.988 220.928 361.77 220.512C362.551 220.095 363.137 219.529 363.527 218.812C363.931 218.083 364.133 217.263 364.133 216.352C364.133 215.362 363.938 214.503 363.547 213.773C363.169 213.031 362.583 212.465 361.789 212.074C360.995 211.671 359.986 211.469 358.762 211.469H353.605V236H348.703V207.562ZM364.934 236L358.254 223.227L363.391 223.207L370.168 235.746V236H364.934Z" fill="#424242"/>
<path d="M392.512 232.113V236H377.414V232.113H392.512ZM378.801 207.562V236H373.898V207.562H378.801ZM390.539 219.438V223.266H377.414V219.438H390.539ZM392.414 207.562V211.469H377.414V207.562H392.414Z" fill="#424242"/>
<path d="M419.074 207.562V236H414.172L401.418 215.629V236H396.516V207.562H401.418L414.211 227.973V207.562H419.074Z" fill="#424242"/>
<path d="M441.711 226.742H446.594C446.438 228.604 445.917 230.264 445.031 231.723C444.146 233.168 442.902 234.307 441.301 235.141C439.699 235.974 437.753 236.391 435.461 236.391C433.703 236.391 432.121 236.078 430.715 235.453C429.309 234.815 428.104 233.917 427.102 232.758C426.099 231.586 425.331 230.173 424.797 228.52C424.276 226.866 424.016 225.017 424.016 222.973V220.609C424.016 218.565 424.283 216.716 424.816 215.062C425.363 213.409 426.145 211.996 427.16 210.824C428.176 209.639 429.393 208.734 430.812 208.109C432.245 207.484 433.853 207.172 435.637 207.172C437.902 207.172 439.816 207.589 441.379 208.422C442.941 209.255 444.152 210.408 445.012 211.879C445.884 213.35 446.418 215.036 446.613 216.938H441.73C441.6 215.714 441.314 214.665 440.871 213.793C440.441 212.921 439.803 212.257 438.957 211.801C438.111 211.332 437.004 211.098 435.637 211.098C434.517 211.098 433.54 211.306 432.707 211.723C431.874 212.139 431.177 212.751 430.617 213.559C430.057 214.366 429.634 215.362 429.348 216.547C429.074 217.719 428.938 219.06 428.938 220.57V222.973C428.938 224.405 429.061 225.707 429.309 226.879C429.569 228.038 429.96 229.034 430.48 229.867C431.014 230.701 431.691 231.345 432.512 231.801C433.332 232.257 434.315 232.484 435.461 232.484C436.854 232.484 437.98 232.263 438.84 231.82C439.712 231.378 440.37 230.733 440.812 229.887C441.268 229.027 441.568 227.979 441.711 226.742Z" fill="#424242"/>
<path d="M453.762 207.562L460.363 221.137L466.965 207.562H472.395L462.824 225.531V236H457.883V225.531L448.312 207.562H453.762Z" fill="#424242"/>
<path d="M911.727 221.469V232.328C911.323 232.862 910.691 233.448 909.832 234.086C908.986 234.711 907.859 235.251 906.453 235.707C905.047 236.163 903.296 236.391 901.199 236.391C899.415 236.391 897.781 236.091 896.297 235.492C894.812 234.88 893.53 233.988 892.449 232.816C891.382 231.645 890.555 230.219 889.969 228.539C889.383 226.846 889.09 224.919 889.09 222.758V220.785C889.09 218.637 889.357 216.723 889.891 215.043C890.438 213.35 891.219 211.918 892.234 210.746C893.25 209.574 894.474 208.689 895.906 208.09C897.352 207.478 898.986 207.172 900.809 207.172C903.139 207.172 905.066 207.562 906.59 208.344C908.126 209.112 909.311 210.18 910.145 211.547C910.978 212.914 911.505 214.477 911.727 216.234H906.922C906.766 215.245 906.46 214.359 906.004 213.578C905.561 212.797 904.923 212.185 904.09 211.742C903.27 211.286 902.202 211.059 900.887 211.059C899.754 211.059 898.758 211.273 897.898 211.703C897.039 212.133 896.323 212.764 895.75 213.598C895.19 214.431 894.767 215.447 894.48 216.645C894.194 217.842 894.051 219.21 894.051 220.746V222.758C894.051 224.32 894.214 225.707 894.539 226.918C894.878 228.129 895.359 229.151 895.984 229.984C896.622 230.818 897.397 231.449 898.309 231.879C899.22 232.296 900.249 232.504 901.395 232.504C902.514 232.504 903.432 232.413 904.148 232.23C904.865 232.035 905.431 231.807 905.848 231.547C906.277 231.273 906.609 231.013 906.844 230.766V225.121H900.926V221.469H911.727Z" fill="#424242"/>
<path d="M917.156 207.562H927.215C929.376 207.562 931.219 207.888 932.742 208.539C934.266 209.19 935.431 210.154 936.238 211.43C937.059 212.693 937.469 214.255 937.469 216.117C937.469 217.536 937.208 218.786 936.688 219.867C936.167 220.948 935.431 221.859 934.48 222.602C933.53 223.331 932.397 223.897 931.082 224.301L929.598 225.023H920.555L920.516 221.137H927.293C928.465 221.137 929.441 220.928 930.223 220.512C931.004 220.095 931.59 219.529 931.98 218.812C932.384 218.083 932.586 217.263 932.586 216.352C932.586 215.362 932.391 214.503 932 213.773C931.622 213.031 931.036 212.465 930.242 212.074C929.448 211.671 928.439 211.469 927.215 211.469H922.059V236H917.156V207.562ZM933.387 236L926.707 223.227L931.844 223.207L938.621 235.746V236H933.387Z" fill="#424242"/>
<path d="M965.027 221V222.562C965.027 224.711 964.747 226.638 964.188 228.344C963.628 230.049 962.827 231.501 961.785 232.699C960.757 233.897 959.52 234.815 958.074 235.453C956.629 236.078 955.027 236.391 953.27 236.391C951.525 236.391 949.93 236.078 948.484 235.453C947.052 234.815 945.809 233.897 944.754 232.699C943.699 231.501 942.879 230.049 942.293 228.344C941.72 226.638 941.434 224.711 941.434 222.562V221C941.434 218.852 941.72 216.931 942.293 215.238C942.866 213.533 943.673 212.081 944.715 210.883C945.77 209.672 947.013 208.754 948.445 208.129C949.891 207.491 951.486 207.172 953.23 207.172C954.988 207.172 956.59 207.491 958.035 208.129C959.48 208.754 960.724 209.672 961.766 210.883C962.807 212.081 963.608 213.533 964.168 215.238C964.741 216.931 965.027 218.852 965.027 221ZM960.125 222.562V220.961C960.125 219.372 959.969 217.973 959.656 216.762C959.357 215.538 958.908 214.516 958.309 213.695C957.723 212.862 957 212.237 956.141 211.82C955.281 211.391 954.311 211.176 953.23 211.176C952.15 211.176 951.186 211.391 950.34 211.82C949.493 212.237 948.771 212.862 948.172 213.695C947.586 214.516 947.137 215.538 946.824 216.762C946.512 217.973 946.355 219.372 946.355 220.961V222.562C946.355 224.151 946.512 225.557 946.824 226.781C947.137 228.005 947.592 229.04 948.191 229.887C948.803 230.72 949.533 231.352 950.379 231.781C951.225 232.198 952.189 232.406 953.27 232.406C954.363 232.406 955.333 232.198 956.18 231.781C957.026 231.352 957.742 230.72 958.328 229.887C958.914 229.04 959.357 228.005 959.656 226.781C959.969 225.557 960.125 224.151 960.125 222.562Z" fill="#424242"/>
<path d="M977.059 229.613L982.723 207.562H985.691L985.359 213.246L979.305 236H976.219L977.059 229.613ZM972.82 207.562L977.41 229.438L977.82 236H974.539L967.957 207.562H972.82ZM992.117 229.379L996.648 207.562H1001.53L994.949 236H991.668L992.117 229.379ZM986.844 207.562L992.449 229.672L993.27 236H990.184L984.227 213.246L983.914 207.562H986.844Z" fill="#424242"/>
<path d="M1017.14 207.562V236H1012.27V207.562H1017.14ZM1026.06 207.562V211.469H1003.43V207.562H1026.06Z" fill="#424242"/>
<path d="M1048.6 219.438V223.324H1033.5V219.438H1048.6ZM1034.71 207.562V236H1029.81V207.562H1034.71ZM1052.37 207.562V236H1047.49V207.562H1052.37Z" fill="#424242"/>
<path d="M556.688 226.742H561.57C561.414 228.604 560.893 230.264 560.008 231.723C559.122 233.168 557.879 234.307 556.277 235.141C554.676 235.974 552.729 236.391 550.438 236.391C548.68 236.391 547.098 236.078 545.691 235.453C544.285 234.815 543.081 233.917 542.078 232.758C541.076 231.586 540.307 230.173 539.773 228.52C539.253 226.866 538.992 225.017 538.992 222.973V220.609C538.992 218.565 539.259 216.716 539.793 215.062C540.34 213.409 541.121 211.996 542.137 210.824C543.152 209.639 544.37 208.734 545.789 208.109C547.221 207.484 548.829 207.172 550.613 207.172C552.879 207.172 554.793 207.589 556.355 208.422C557.918 209.255 559.129 210.408 559.988 211.879C560.861 213.35 561.395 215.036 561.59 216.938H556.707C556.577 215.714 556.29 214.665 555.848 213.793C555.418 212.921 554.78 212.257 553.934 211.801C553.087 211.332 551.98 211.098 550.613 211.098C549.493 211.098 548.517 211.306 547.684 211.723C546.85 212.139 546.154 212.751 545.594 213.559C545.034 214.366 544.611 215.362 544.324 216.547C544.051 217.719 543.914 219.06 543.914 220.57V222.973C543.914 224.405 544.038 225.707 544.285 226.879C544.546 228.038 544.936 229.034 545.457 229.867C545.991 230.701 546.668 231.345 547.488 231.801C548.309 232.257 549.292 232.484 550.438 232.484C551.831 232.484 552.957 232.263 553.816 231.82C554.689 231.378 555.346 230.733 555.789 229.887C556.245 229.027 556.544 227.979 556.688 226.742Z" fill="#424242"/>
<path d="M588.699 221V222.562C588.699 224.711 588.419 226.638 587.859 228.344C587.299 230.049 586.499 231.501 585.457 232.699C584.428 233.897 583.191 234.815 581.746 235.453C580.301 236.078 578.699 236.391 576.941 236.391C575.197 236.391 573.602 236.078 572.156 235.453C570.724 234.815 569.48 233.897 568.426 232.699C567.371 231.501 566.551 230.049 565.965 228.344C565.392 226.638 565.105 224.711 565.105 222.562V221C565.105 218.852 565.392 216.931 565.965 215.238C566.538 213.533 567.345 212.081 568.387 210.883C569.441 209.672 570.685 208.754 572.117 208.129C573.562 207.491 575.158 207.172 576.902 207.172C578.66 207.172 580.262 207.491 581.707 208.129C583.152 208.754 584.396 209.672 585.438 210.883C586.479 212.081 587.28 213.533 587.84 215.238C588.413 216.931 588.699 218.852 588.699 221ZM583.797 222.562V220.961C583.797 219.372 583.641 217.973 583.328 216.762C583.029 215.538 582.579 214.516 581.98 213.695C581.395 212.862 580.672 212.237 579.812 211.82C578.953 211.391 577.983 211.176 576.902 211.176C575.822 211.176 574.858 211.391 574.012 211.82C573.165 212.237 572.443 212.862 571.844 213.695C571.258 214.516 570.809 215.538 570.496 216.762C570.184 217.973 570.027 219.372 570.027 220.961V222.562C570.027 224.151 570.184 225.557 570.496 226.781C570.809 228.005 571.264 229.04 571.863 229.887C572.475 230.72 573.204 231.352 574.051 231.781C574.897 232.198 575.861 232.406 576.941 232.406C578.035 232.406 579.005 232.198 579.852 231.781C580.698 231.352 581.414 230.72 582 229.887C582.586 229.04 583.029 228.005 583.328 226.781C583.641 225.557 583.797 224.151 583.797 222.562Z" fill="#424242"/>
<path d="M616.16 207.562V236H611.258L598.504 215.629V236H593.602V207.562H598.504L611.297 227.973V207.562H616.16Z" fill="#424242"/>
<path d="M633.113 207.562V236H628.25V207.562H633.113ZM642.039 207.562V211.469H619.402V207.562H642.039Z" fill="#424242"/>
<path d="M645.789 207.562H655.848C658.009 207.562 659.852 207.888 661.375 208.539C662.898 209.19 664.064 210.154 664.871 211.43C665.691 212.693 666.102 214.255 666.102 216.117C666.102 217.536 665.841 218.786 665.32 219.867C664.799 220.948 664.064 221.859 663.113 222.602C662.163 223.331 661.03 223.897 659.715 224.301L658.23 225.023H649.188L649.148 221.137H655.926C657.098 221.137 658.074 220.928 658.855 220.512C659.637 220.095 660.223 219.529 660.613 218.812C661.017 218.083 661.219 217.263 661.219 216.352C661.219 215.362 661.023 214.503 660.633 213.773C660.255 213.031 659.669 212.465 658.875 212.074C658.081 211.671 657.072 211.469 655.848 211.469H650.691V236H645.789V207.562ZM662.02 236L655.34 223.227L660.477 223.207L667.254 235.746V236H662.02Z" fill="#424242"/>
<path d="M676.219 207.562V236H671.316V207.562H676.219Z" fill="#424242"/>
<path d="M692.977 223.148H685.73L685.691 219.574H692.02C693.087 219.574 693.992 219.418 694.734 219.105C695.49 218.78 696.062 218.318 696.453 217.719C696.844 217.107 697.039 216.371 697.039 215.512C697.039 214.561 696.857 213.786 696.492 213.188C696.128 212.589 695.568 212.152 694.812 211.879C694.07 211.605 693.12 211.469 691.961 211.469H687.215V236H682.312V207.562H691.961C693.523 207.562 694.917 207.712 696.141 208.012C697.378 208.311 698.426 208.78 699.285 209.418C700.158 210.043 700.815 210.837 701.258 211.801C701.714 212.764 701.941 213.91 701.941 215.238C701.941 216.41 701.661 217.484 701.102 218.461C700.542 219.424 699.715 220.212 698.621 220.824C697.527 221.436 696.167 221.801 694.539 221.918L692.977 223.148ZM692.762 236H684.188L686.395 232.113H692.762C693.868 232.113 694.793 231.931 695.535 231.566C696.277 231.189 696.831 230.674 697.195 230.023C697.573 229.359 697.762 228.585 697.762 227.699C697.762 226.775 697.599 225.974 697.273 225.297C696.948 224.607 696.434 224.079 695.73 223.715C695.027 223.337 694.109 223.148 692.977 223.148H687.469L687.508 219.574H694.676L695.789 220.922C697.352 220.974 698.634 221.319 699.637 221.957C700.652 222.595 701.408 223.422 701.902 224.438C702.397 225.453 702.645 226.547 702.645 227.719C702.645 229.529 702.247 231.046 701.453 232.27C700.672 233.493 699.546 234.424 698.074 235.062C696.603 235.688 694.832 236 692.762 236Z" fill="#424242"/>
<path d="M723.543 207.562H728.426V226.566C728.426 228.728 727.957 230.538 727.02 231.996C726.082 233.454 724.806 234.555 723.191 235.297C721.59 236.026 719.799 236.391 717.82 236.391C715.776 236.391 713.953 236.026 712.352 235.297C710.75 234.555 709.487 233.454 708.562 231.996C707.651 230.538 707.195 228.728 707.195 226.566V207.562H712.078V226.566C712.078 227.934 712.312 229.06 712.781 229.945C713.25 230.818 713.914 231.462 714.773 231.879C715.633 232.296 716.648 232.504 717.82 232.504C718.992 232.504 720.001 232.296 720.848 231.879C721.707 231.462 722.371 230.818 722.84 229.945C723.309 229.06 723.543 227.934 723.543 226.566V207.562Z" fill="#424242"/>
<path d="M745.457 207.562V236H740.594V207.562H745.457ZM754.383 207.562V211.469H731.746V207.562H754.383Z" fill="#424242"/>
<path d="M763.367 207.562V236H758.465V207.562H763.367Z" fill="#424242"/>
<path d="M792.137 221V222.562C792.137 224.711 791.857 226.638 791.297 228.344C790.737 230.049 789.936 231.501 788.895 232.699C787.866 233.897 786.629 234.815 785.184 235.453C783.738 236.078 782.137 236.391 780.379 236.391C778.634 236.391 777.039 236.078 775.594 235.453C774.161 234.815 772.918 233.897 771.863 232.699C770.809 231.501 769.988 230.049 769.402 228.344C768.829 226.638 768.543 224.711 768.543 222.562V221C768.543 218.852 768.829 216.931 769.402 215.238C769.975 213.533 770.783 212.081 771.824 210.883C772.879 209.672 774.122 208.754 775.555 208.129C777 207.491 778.595 207.172 780.34 207.172C782.098 207.172 783.699 207.491 785.145 208.129C786.59 208.754 787.833 209.672 788.875 210.883C789.917 212.081 790.717 213.533 791.277 215.238C791.85 216.931 792.137 218.852 792.137 221ZM787.234 222.562V220.961C787.234 219.372 787.078 217.973 786.766 216.762C786.466 215.538 786.017 214.516 785.418 213.695C784.832 212.862 784.109 212.237 783.25 211.82C782.391 211.391 781.421 211.176 780.34 211.176C779.259 211.176 778.296 211.391 777.449 211.82C776.603 212.237 775.88 212.862 775.281 213.695C774.695 214.516 774.246 215.538 773.934 216.762C773.621 217.973 773.465 219.372 773.465 220.961V222.562C773.465 224.151 773.621 225.557 773.934 226.781C774.246 228.005 774.702 229.04 775.301 229.887C775.913 230.72 776.642 231.352 777.488 231.781C778.335 232.198 779.298 232.406 780.379 232.406C781.473 232.406 782.443 232.198 783.289 231.781C784.135 231.352 784.852 230.72 785.438 229.887C786.023 229.04 786.466 228.005 786.766 226.781C787.078 225.557 787.234 224.151 787.234 222.562Z" fill="#424242"/>
<path d="M819.598 207.562V236H814.695L801.941 215.629V236H797.039V207.562H801.941L814.734 227.973V207.562H819.598Z" fill="#424242"/>
</svg>
